<svg xmlns="http://www.w3.org/2000/svg" viewBox="0 0 100 100">
  <defs>
    <linearGradient id="gradient" x1="0%" y1="0%" x2="100%" y2="100%">
      <stop offset="0%" style="stop-color:#00d4ff"/>
      <stop offset="50%" style="stop-color:#a855f7"/>
      <stop offset="100%" style="stop-color:#ec4899"/>
    </linearGradient>
  </defs>
  
  <!-- Background circle -->
  <circle cx="50" cy="50" r="45" fill="url(#gradient)" opacity="0.9"/>
  
  <!-- Letter B design -->
  <path d="M25 20 L25 80 L55 80 Q70 80 70 65 Q70 55 60 50 Q70 45 70 35 Q70 20 55 20 Z M35 30 L50 30 Q60 30 60 35 Q60 40 50 40 L35 40 Z M35 50 L55 50 Q65 50 65 60 Q65 70 55 70 L35 70 Z" fill="white" opacity="0.95"/>
  
  <!-- Accent dots -->
  <circle cx="80" cy="25" r="4" fill="#00d4ff" opacity="0.8"/>
  <circle cx="20" cy="75" r="3" fill="#ec4899" opacity="0.8"/>
  <circle cx="75" cy="80" r="2" fill="#a855f7" opacity="0.8"/>
</svg>